<?xml version="1.0" encoding="utf-8"?>
<!-- Generator: Adobe Illustrator 24.3.0, SVG Export Plug-In . SVG Version: 6.00 Build 0)  -->
<svg version="1.1" id="logo-12" xmlns="http://www.w3.org/2000/svg" xmlns:xlink="http://www.w3.org/1999/xlink" x="0px" y="0px"
	 viewBox="0 0 138 30" style="enable-background:new 0 0 138 30;" xml:space="preserve">
<style type="text/css">
	.st0{fill:#4D67AA;}
	.st1{fill:#FFBC00;}
	.st2{fill:none;}
	.st3{fill:#FFFFFF;}
	.st4{font-family:'CenturyGothic-Bold';}
	.st5{font-size:6px;}
	.st6{font-size:4px;}
</style>
<path class="st0" d="M127.3,10.9c1.3,0,2.3-1,2.3-2.3s-1-2.3-2.3-2.3s-2.3,1-2.3,2.3S126,10.9,127.3,10.9z"/>
<g>
	<path class="st0" d="M41.2,11.1v5.2l0,0c0,1.1-0.4,2.1-1.2,2.9s-1.8,1.2-2.9,1.2S35,20,34.2,19.2c-0.8-0.8-1.2-1.8-1.2-2.9v-5.2
		h1.4v5.2c0,0.7,0.3,1.4,0.8,1.9s1.2,0.8,1.9,0.8s1.4-0.3,1.9-0.8s0.8-1.2,0.8-1.9v-5.2C39.8,11.1,41.2,11.1,41.2,11.1z"/>
	<path class="st0" d="M44.2,13.2v0.6c0.5-0.5,1.2-0.8,2-0.8c1.1,0,1.9,0.3,2.5,1s0.9,1.6,0.9,2.7v3.5h-1.4v-3.5
		c0-0.8-0.2-1.3-0.6-1.7c-0.3-0.4-0.8-0.6-1.5-0.6S45,14.6,44.6,15c-0.4,0.4-0.6,1-0.6,1.7v3.5h-1.4v-7
		C42.6,13.2,44.2,13.2,44.2,13.2z"/>
	<path class="st0" d="M52.8,11.1v1.4h-1.4v-1.4H52.8z M52.8,13.2v7h-1.4v-7C51.4,13.2,52.8,13.2,52.8,13.2z"/>
	<path class="st0" d="M55.8,13.2l1.9,2.4l1.9-2.4h1.8l-2.7,3.5l2.7,3.5h-1.8l-1.9-2.4l-1.9,2.4H54l2.7-3.5L54,13.2
		C54,13.2,55.8,13.2,55.8,13.2z"/>
	<path class="st0" d="M62,20.2l1.3-9.6l4.8,7.2l4.8-7.2l1.3,9.6h-1.4L72,14.5l-4,5.7l-3.8-5.7l-0.8,5.7H62z"/>
	<path class="st0" d="M80.6,19.9c-0.6,0.3-1.3,0.5-1.9,0.5c-1,0-1.9-0.4-2.6-1.1S75,17.7,75,16.7s0.4-1.9,1.1-2.6
		c0.7-0.7,1.6-1.1,2.6-1.1c0.6,0,1.3,0.2,1.8,0.5s1,0.8,1.4,1.3l0.4,0.6l-5.1,3c0.4,0.4,1,0.6,1.6,0.6c0.4,0,0.9-0.1,1.3-0.3
		c0.4-0.2,0.7-0.5,1-0.8l1.2,0.7C81.7,19.2,81.2,19.6,80.6,19.9z M76.4,17.1l3.8-2.2c-0.1-0.1-0.2-0.2-0.4-0.3
		c-0.3-0.2-0.7-0.3-1.1-0.3c-0.6,0-1.2,0.2-1.6,0.7c-0.4,0.4-0.7,1-0.7,1.6C76.4,16.8,76.4,17,76.4,17.1z"/>
	<path class="st0" d="M84.5,18.2c0,0.3,0.1,0.5,0.4,0.7c0.2,0.1,0.5,0.2,0.9,0.2c0.3,0,0.6-0.1,0.9-0.2c0.3-0.2,0.4-0.4,0.4-0.7
		c0-0.2-0.2-0.4-0.5-0.5c-0.2-0.1-0.5-0.2-1-0.3c-0.8-0.2-1.4-0.4-1.7-0.6c-0.5-0.4-0.8-0.9-0.8-1.6c0-0.5,0.2-0.9,0.5-1.3
		c0.3-0.3,0.7-0.6,1.2-0.7c0.3-0.1,0.7-0.1,1-0.1c0.4,0,0.7,0,1,0.1c0.5,0.2,0.9,0.4,1.2,0.7c0.3,0.4,0.5,0.8,0.5,1.3h-1.4
		c0-0.3-0.1-0.5-0.4-0.7c-0.2-0.1-0.5-0.2-0.9-0.2c-0.3,0-0.6,0.1-0.9,0.2c-0.3,0.2-0.4,0.4-0.4,0.7c0,0.2,0.2,0.4,0.5,0.5
		c0.2,0.1,0.5,0.2,1,0.3c0.8,0.2,1.4,0.4,1.7,0.6c0.5,0.4,0.8,0.9,0.8,1.6c0,0.5-0.2,1-0.5,1.3s-0.7,0.6-1.2,0.7
		c-0.3,0.1-0.7,0.1-1,0.1s-0.7,0-1-0.1c-0.5-0.1-0.9-0.4-1.2-0.7c-0.3-0.4-0.5-0.8-0.5-1.3H84.5z"/>
	<path class="st0" d="M91.2,18.2c0,0.3,0.1,0.5,0.4,0.7c0.2,0.1,0.5,0.2,0.9,0.2c0.3,0,0.6-0.1,0.9-0.2c0.3-0.2,0.4-0.4,0.4-0.7
		c0-0.2-0.2-0.4-0.5-0.5c-0.2-0.1-0.5-0.2-1-0.3c-0.8-0.2-1.4-0.4-1.7-0.6c-0.5-0.4-0.8-0.9-0.8-1.6c0-0.5,0.2-0.9,0.5-1.3
		c0.3-0.3,0.7-0.6,1.2-0.7c0.3-0.1,0.7-0.1,1-0.1c0.4,0,0.7,0,1,0.1c0.5,0.2,0.9,0.4,1.2,0.7c0.3,0.4,0.5,0.8,0.5,1.3h-1.4
		c0-0.3-0.1-0.5-0.4-0.7c-0.2-0.1-0.5-0.2-0.9-0.2c-0.3,0-0.6,0.1-0.9,0.2c-0.3,0.2-0.4,0.4-0.4,0.7c0,0.2,0.2,0.4,0.5,0.5
		c0.2,0.1,0.5,0.2,1,0.3c0.8,0.2,1.4,0.4,1.7,0.6c0.5,0.4,0.8,0.9,0.8,1.6c0,0.5-0.2,1-0.5,1.3s-0.7,0.6-1.2,0.7
		c-0.3,0.1-0.7,0.1-1,0.1s-0.7,0-1-0.1c-0.5-0.1-0.9-0.4-1.2-0.7c-0.3-0.4-0.5-0.8-0.5-1.3H91.2z"/>
	<path class="st0" d="M102.3,14v-0.9h1.4v7h-1.4v-0.9c-0.6,0.7-1.3,1-2.3,1s-1.9-0.4-2.6-1.1s-1.1-1.6-1.1-2.6s0.4-1.9,1.1-2.6
		C98.1,13.4,99,13,100,13S101.7,13.3,102.3,14z M102.3,16.7c0-0.6-0.2-1.2-0.7-1.6c-0.4-0.4-1-0.7-1.6-0.7s-1.2,0.2-1.6,0.7
		c-0.4,0.4-0.7,1-0.7,1.6s0.2,1.2,0.7,1.6c0.4,0.4,1,0.7,1.6,0.7s1.2-0.2,1.6-0.7C102.1,17.9,102.3,17.3,102.3,16.7L102.3,16.7z"/>
	<path class="st0" d="M105.5,18.2c-0.2-0.5-0.3-1-0.3-1.5s0.1-1,0.3-1.5c0.7-1.5,1.9-2.2,3.5-2.2c1,0,1.8,0.4,2.4,1.1v-0.9h1.4v5.5
		c0,1.1-0.4,2.1-1.2,2.9c-0.8,0.8-1.7,1.2-2.8,1.2c-0.7,0-1.4-0.1-2-0.4s-1.1-0.7-1.5-1.3l1.1-0.8c0.2,0.3,0.5,0.6,0.9,0.8
		c0.4,0.2,0.9,0.3,1.4,0.3c0.6,0,1.1-0.2,1.6-0.6s0.8-0.9,0.9-1.5c-0.5,0.6-1.3,1-2.3,1C107.3,20.3,106.2,19.6,105.5,18.2z
		 M111.4,16.6c0-0.3-0.1-0.6-0.2-0.8c-0.4-0.9-1.2-1.4-2.2-1.4s-1.8,0.5-2.2,1.4c-0.1,0.3-0.2,0.6-0.2,0.9l0,0c0,0.3,0.1,0.7,0.2,1
		c0.4,0.9,1.2,1.4,2.2,1.4s1.8-0.5,2.2-1.4c0.1-0.3,0.2-0.6,0.2-1V16.6z"/>
	<path class="st0" d="M119.8,19.9c-0.6,0.3-1.3,0.5-1.9,0.5c-1,0-1.9-0.4-2.6-1.1s-1.1-1.6-1.1-2.6s0.4-1.9,1.1-2.6
		c0.7-0.7,1.6-1.1,2.6-1.1c0.6,0,1.3,0.2,1.8,0.5s1,0.8,1.4,1.3l0.4,0.6l-5.1,3c0.4,0.4,1,0.6,1.6,0.6c0.4,0,0.9-0.1,1.3-0.3
		c0.4-0.2,0.7-0.5,1-0.8l1.2,0.7C120.9,19.2,120.4,19.6,119.8,19.9z M115.6,17.1l3.8-2.2c-0.1-0.1-0.2-0.2-0.4-0.3
		c-0.3-0.2-0.7-0.3-1.1-0.3c-0.6,0-1.2,0.2-1.6,0.7c-0.4,0.4-0.7,1-0.7,1.6C115.6,16.8,115.6,17,115.6,17.1z"/>
</g>
<g>
	<g>
		<path class="st0" d="M21.8,8.6v7.3l0,0c0,1.6-0.7,2.9-2,4s-2.9,1.7-4.8,1.7s-3.5-0.6-4.8-1.7s-2-2.5-2-4V8.6h2.4v7.3
			c0,1,0.4,1.9,1.3,2.6c0.9,0.7,1.9,1.1,3.2,1.1s2.3-0.4,3.2-1.1c0.9-0.7,1.3-1.6,1.3-2.6V8.6H21.8z"/>
	</g>
</g>
<path class="st1" d="M29.1,7.3c0,2.3-1.9,4.2-4.2,4.2h-4.2V7.3c0-2.3,1.9-4.2,4.2-4.2S29.1,5,29.1,7.3z"/>
<rect x="22.2" y="3.1" class="st2" width="12.8" height="5.2"/>
<text transform="matrix(1 0 0 1 22.17 7.5648)" class="st3 st4 st5">...</text>
<rect x="125.8" y="7.1" class="st2" width="9.1" height="12.6"/>
<text transform="matrix(1 0 0 1 125.7575 10.0778)" class="st3 st4 st6">®</text>
</svg>
